<svg xmlns="http://www.w3.org/2000/svg" xmlns:xlink="http://www.w3.org/1999/xlink" width="1000" zoomAndPan="magnify" viewBox="0 0 750 299.999988" height="400" preserveAspectRatio="xMidYMid meet" version="1.2"><g id="1925e4f06b"><g style="fill:#000000;fill-opacity:1;"><g transform="translate(25.294645, 196.259592)"><path style="stroke:none" d="M 21.328125 1.78125 L 6.375 1.78125 L 32.71875 -107.796875 L 47.984375 -107.796875 Z M 21.328125 1.78125 "/></g></g><g style="fill:#000000;fill-opacity:1;"><g transform="translate(66.461962, 196.259592)"><path style="stroke:none" d="M 21.328125 1.78125 L 6.375 1.78125 L 32.71875 -107.796875 L 47.984375 -107.796875 Z M 21.328125 1.78125 "/></g></g><g style="fill:#000000;fill-opacity:1;"><g transform="translate(107.629278, 196.259592)"><path style="stroke:none" d=""/></g></g><g style="fill:#000000;fill-opacity:1;"><g transform="translate(148.796594, 196.259592)"><path style="stroke:none" d="M 41.015625 -68.265625 C 45.265625 -71.617188 49.410156 -74.160156 53.453125 -75.890625 C 57.503906 -77.617188 62 -78.484375 66.9375 -78.484375 C 73.351562 -78.484375 78.335938 -76.65625 81.890625 -73 C 85.441406 -69.351562 87.21875 -64.46875 87.21875 -58.34375 C 87.21875 -55.78125 86.578125 -51.582031 85.296875 -45.75 L 75.8125 0 L 55.078125 0 L 65 -47.984375 C 65.101562 -48.566406 65.351562 -49.648438 65.75 -51.234375 C 66.144531 -52.816406 66.34375 -54.25 66.34375 -55.53125 C 66.34375 -57.894531 65.5 -59.84375 63.8125 -61.375 C 62.132812 -62.90625 59.914062 -63.671875 57.15625 -63.671875 C 54.488281 -63.671875 51.625 -62.734375 48.5625 -60.859375 C 45.507812 -58.984375 43.242188 -56.957031 41.765625 -54.78125 C 39.492188 -51.53125 37.863281 -48.472656 36.875 -45.609375 C 35.882812 -42.742188 35.191406 -40.445312 34.796875 -38.71875 C 34.398438 -36.988281 34.15625 -35.925781 34.0625 -35.53125 L 26.65625 0 L 5.921875 0 L 28.140625 -106.03125 L 48.859375 -106.03125 Z M 41.015625 -68.265625 "/></g></g><g style="fill:#000000;fill-opacity:1;"><g transform="translate(239.275822, 196.259592)"><path style="stroke:none" d="M 50.203125 -78.484375 C 59.578125 -78.484375 66.734375 -76.628906 71.671875 -72.921875 C 76.609375 -69.222656 79.078125 -64.265625 79.078125 -58.046875 C 79.078125 -54.984375 78.753906 -51.597656 78.109375 -47.890625 C 77.472656 -44.191406 76.5625 -39.828125 75.375 -34.796875 C 73.894531 -28.085938 72.859375 -23.128906 72.265625 -19.921875 C 71.671875 -16.710938 71.375 -13.675781 71.375 -10.8125 C 71.375 -7.457031 71.914062 -3.851562 73 0 L 52.859375 0 C 51.972656 -3.0625 51.484375 -5.972656 51.390625 -8.734375 C 47.734375 -4.785156 43.929688 -2.046875 39.984375 -0.515625 C 36.035156 1.015625 32.476562 1.78125 29.3125 1.78125 C 22.695312 1.78125 17.316406 -0.289062 13.171875 -4.4375 C 9.023438 -8.582031 6.953125 -14.015625 6.953125 -20.734375 C 6.953125 -28.140625 9 -33.691406 13.09375 -37.390625 C 17.195312 -41.085938 21.269531 -43.351562 25.3125 -44.1875 C 29.363281 -45.03125 34.550781 -45.75 40.875 -46.34375 C 45.414062 -46.738281 48.867188 -47.109375 51.234375 -47.453125 C 53.597656 -47.804688 55.867188 -48.328125 58.046875 -49.015625 C 58.140625 -49.304688 58.410156 -50.21875 58.859375 -51.75 C 59.304688 -53.28125 59.53125 -54.738281 59.53125 -56.125 C 59.53125 -58.488281 58.515625 -60.335938 56.484375 -61.671875 C 54.460938 -63.003906 51.875 -63.671875 48.71875 -63.671875 C 45.164062 -63.671875 42.300781 -62.976562 40.125 -61.59375 C 37.957031 -60.21875 36.425781 -58.046875 35.53125 -55.078125 L 15.25 -56.859375 C 17.519531 -63.867188 21.640625 -69.222656 27.609375 -72.921875 C 33.585938 -76.628906 41.117188 -78.484375 50.203125 -78.484375 Z M 48.5625 -34.65625 C 44.03125 -33.957031 40.304688 -33.285156 37.390625 -32.640625 C 34.472656 -32.003906 31.925781 -30.867188 29.75 -29.234375 C 27.582031 -27.609375 26.5 -25.414062 26.5 -22.65625 C 26.5 -19.894531 27.363281 -17.75 29.09375 -16.21875 C 30.820312 -14.6875 33.117188 -13.921875 35.984375 -13.921875 C 42.398438 -13.921875 46.84375 -15.769531 49.3125 -19.46875 C 51.78125 -23.175781 53.457031 -27.300781 54.34375 -31.84375 L 55.234375 -35.828125 C 53.847656 -35.335938 51.625 -34.945312 48.5625 -34.65625 Z M 48.5625 -34.65625 "/></g></g><g style="fill:#000000;fill-opacity:1;"><g transform="translate(321.61042, 196.259592)"><path style="stroke:none" d="M 66.9375 -78.484375 C 73.351562 -78.484375 78.335938 -76.65625 81.890625 -73 C 85.441406 -69.351562 87.21875 -64.566406 87.21875 -58.640625 C 87.21875 -56.066406 86.523438 -51.476562 85.140625 -44.875 L 75.8125 0 L 55.078125 0 L 65 -47.984375 L 65.59375 -50.9375 C 66.09375 -53.113281 66.34375 -54.546875 66.34375 -55.234375 C 66.34375 -57.898438 65.550781 -59.972656 63.96875 -61.453125 C 62.382812 -62.929688 60.164062 -63.671875 57.3125 -63.671875 C 53.851562 -63.671875 50.222656 -62.1875 46.421875 -59.21875 C 42.617188 -56.257812 39.832031 -52.804688 38.0625 -48.859375 C 36.570312 -45.410156 35.085938 -40.226562 33.609375 -33.3125 L 26.65625 0 L 5.921875 0 L 21.921875 -76.703125 L 41.609375 -76.703125 L 39.53125 -66.78125 C 44.269531 -70.925781 48.757812 -73.910156 53 -75.734375 C 57.25 -77.566406 61.894531 -78.484375 66.9375 -78.484375 Z M 66.9375 -78.484375 "/></g></g><g style="fill:#000000;fill-opacity:1;"><g transform="translate(412.089683, 196.259592)"><path style="stroke:none" d="M 44.578125 -87.0625 L 23.84375 -87.0625 L 27.84375 -106.03125 L 48.5625 -106.03125 Z M 26.359375 0 L 5.625 0 L 21.625 -76.703125 L 42.5 -76.703125 Z M 26.359375 0 "/></g></g><g style="fill:#000000;fill-opacity:1;"><g transform="translate(453.256999, 196.259592)"><path style="stroke:none" d="M 50.046875 -78.484375 C 68.304688 -78.484375 78.96875 -71.816406 82.03125 -58.484375 L 62.78125 -55.078125 C 60.507812 -61.109375 55.179688 -64.125 46.796875 -64.125 C 43.046875 -64.125 40.082031 -63.503906 37.90625 -62.265625 C 35.738281 -61.035156 34.65625 -59.429688 34.65625 -57.453125 C 34.65625 -55.484375 35.34375 -53.976562 36.71875 -52.9375 C 38.101562 -51.90625 40.128906 -50.992188 42.796875 -50.203125 C 50.691406 -48.023438 56.957031 -45.945312 61.59375 -43.96875 C 66.238281 -42 69.894531 -39.507812 72.5625 -36.5 C 75.226562 -33.488281 76.5625 -29.710938 76.5625 -25.171875 C 76.5625 -20.429688 75.226562 -16.015625 72.5625 -11.921875 C 69.894531 -7.828125 65.941406 -4.519531 60.703125 -2 C 55.472656 0.519531 49.109375 1.78125 41.609375 1.78125 C 20.773438 1.78125 8.085938 -5.96875 3.546875 -21.46875 L 23.6875 -24.734375 C 25.363281 -20.679688 27.507812 -17.71875 30.125 -15.84375 C 32.75 -13.96875 36.429688 -13.03125 41.171875 -13.03125 C 45.316406 -13.03125 48.769531 -13.84375 51.53125 -15.46875 C 54.289062 -17.101562 55.671875 -19.101562 55.671875 -21.46875 C 55.671875 -23.539062 54.734375 -25.117188 52.859375 -26.203125 C 50.984375 -27.296875 47.675781 -28.53125 42.9375 -29.90625 C 36.425781 -31.976562 31.242188 -33.925781 27.390625 -35.75 C 23.546875 -37.582031 20.535156 -39.929688 18.359375 -42.796875 C 16.191406 -45.660156 15.109375 -49.3125 15.109375 -53.75 C 15.109375 -58.394531 16.488281 -62.59375 19.25 -66.34375 C 22.007812 -70.09375 26.03125 -73.050781 31.3125 -75.21875 C 36.59375 -77.394531 42.835938 -78.484375 50.046875 -78.484375 Z M 50.046875 -78.484375 "/></g></g><g style="fill:#000000;fill-opacity:1;"><g transform="translate(535.591597, 196.259592)"><path style="stroke:none" d="M 52.859375 -78.484375 C 64.117188 -78.484375 72.832031 -75.394531 79 -69.21875 C 85.164062 -63.050781 88.25 -54.539062 88.25 -43.6875 C 88.25 -35.6875 86.472656 -28.226562 82.921875 -21.3125 C 79.367188 -14.40625 74.285156 -8.851562 67.671875 -4.65625 C 61.054688 -0.46875 53.304688 1.625 44.421875 1.625 C 37.316406 1.625 31.046875 0.21875 25.609375 -2.59375 C 20.179688 -5.40625 16.007812 -9.328125 13.09375 -14.359375 C 10.1875 -19.398438 8.734375 -25.226562 8.734375 -31.84375 C 8.734375 -40.53125 10.4375 -48.398438 13.84375 -55.453125 C 17.25 -62.515625 22.257812 -68.117188 28.875 -72.265625 C 35.488281 -76.410156 43.484375 -78.484375 52.859375 -78.484375 Z M 29.609375 -31.25 C 29.609375 -26.90625 31.015625 -22.953125 33.828125 -19.390625 C 36.648438 -15.835938 40.722656 -14.0625 46.046875 -14.0625 C 49.992188 -14.0625 53.671875 -15.566406 57.078125 -18.578125 C 60.484375 -21.585938 63.171875 -25.585938 65.140625 -30.578125 C 67.117188 -35.566406 68.109375 -40.875 68.109375 -46.5 C 68.109375 -51.332031 66.703125 -55.253906 63.890625 -58.265625 C 61.078125 -61.273438 57.054688 -62.78125 51.828125 -62.78125 C 47.679688 -62.78125 43.90625 -61.347656 40.5 -58.484375 C 37.09375 -55.628906 34.425781 -51.78125 32.5 -46.9375 C 30.570312 -42.101562 29.609375 -36.875 29.609375 -31.25 Z M 29.609375 -31.25 "/></g></g><g style="fill:#000000;fill-opacity:1;"><g transform="translate(626.070825, 196.259592)"><path style="stroke:none" d="M 49.609375 -107.796875 C 56.023438 -107.796875 62.738281 -106.660156 69.75 -104.390625 L 65.75 -89.4375 C 60.707031 -91.21875 56.707031 -92.109375 53.75 -92.109375 C 51.1875 -92.109375 49.410156 -91.34375 48.421875 -89.8125 C 47.429688 -88.28125 46.640625 -86.035156 46.046875 -83.078125 L 44.875 -76.703125 L 59.53125 -76.703125 L 56.265625 -61.59375 L 41.609375 -61.59375 L 28.734375 0 L 8 0 L 20.875 -61.59375 L 9.328125 -61.59375 L 12.4375 -76.703125 L 23.984375 -76.703125 L 25.90625 -85.140625 C 27 -90.378906 28.257812 -94.523438 29.6875 -97.578125 C 31.125 -100.640625 33.421875 -103.109375 36.578125 -104.984375 C 39.734375 -106.859375 44.078125 -107.796875 49.609375 -107.796875 Z M 49.609375 -107.796875 "/></g></g><g style="fill:#000000;fill-opacity:1;"><g transform="translate(675.382704, 196.259592)"><path style="stroke:none" d="M 45.15625 -76.703125 L 57.90625 -76.703125 L 54.640625 -61.59375 L 41.90625 -61.59375 L 35.09375 -28.28125 C 34.101562 -23.9375 33.609375 -20.925781 33.609375 -19.25 C 33.609375 -17.46875 34.148438 -16.15625 35.234375 -15.3125 C 36.328125 -14.476562 38.054688 -14.0625 40.421875 -14.0625 C 42.003906 -14.0625 44.273438 -14.257812 47.234375 -14.65625 L 43.984375 0.734375 C 41.515625 1.328125 38.007812 1.625 33.46875 1.625 C 19.15625 1.625 12 -3.601562 12 -14.0625 C 12 -16.132812 12.539062 -20.082031 13.625 -25.90625 L 14.359375 -29.3125 L 21.171875 -61.59375 L 11.109375 -61.59375 L 14.359375 -76.703125 L 24.4375 -76.703125 L 26.953125 -89 L 50.640625 -103.359375 Z M 45.15625 -76.703125 "/></g></g></g></svg>